<svg version="1" xmlns="http://www.w3.org/2000/svg" width="888" height="888" viewBox="0 0 666.000000 666.000000"><path d="M292.5 6.3c-2.7 1.3-8 4.3-11.8 6.5-3.7 2.3-6.9 4.2-7.1 4.2-.1 0-5.9 3.2-12.7 7.1-6.8 4-14.9 8.5-17.9 10.2-3 1.6-6.2 3.6-7.1 4.3-.8.8-1.9 1.4-2.3 1.4-.3 0-12.2 6.7-26.4 14.8-14.1 8.2-29.1 16.8-33.2 19.1-4.1 2.3-8.2 4.6-9 5.1-1.2.8-24.2 14-44 25.2-7.8 4.5-65.7 37.7-68.5 39.3-3.8 2.2-8 7.9-9.2 12.5-.5 2-.9 32.3-.8 70 .2 78.1-.8 71.5 11.7 79.1 4.2 2.6 10.1 6.1 13 7.7 2.9 1.6 9.8 5.5 15.3 8.7 5.5 3.2 11.6 6.6 13.5 7.7 5.9 3.4 6.3 3.9 3.8 5.3-2.2 1.1-11.4 6.5-14.8 8.5-5 3-15.3 9-15.5 9-.2 0-5.3 2.9-11.4 6.5-7.6 4.5-11.9 7.7-13.6 10.3l-2.5 3.7v70.3c0 78.1-.4 73.6 6.8 80.4 3 2.9 17.7 11.8 42.8 25.9 2.2 1.2 19.7 11.2 38.9 22.2 19.3 11 36.4 20.8 38 21.7 1.7 1 5.7 3.3 9 5.2 3.3 2 8 4.7 10.5 6 2.5 1.4 24.3 13.9 48.5 27.8s46.5 26.6 49.5 28.3c3 1.6 6 3.4 6.6 3.9 2.2 1.7 11.2 2.1 16.1.7 2.6-.7 10.8-4.9 18.3-9.2 12.5-7.4 50.3-29.5 59.5-34.7 2.2-1.3 4.8-3 5.8-3.8.9-.8 1.7-1.2 1.7-.8 0 .4 1.9-.6 4.3-2.2 2.3-1.6 6-3.9 8.2-5.1 2.2-1.1 5.8-3.2 8-4.6 2.2-1.4 5.1-3.1 6.5-3.7 4.1-2.1 8.7-6.8 10.6-10.7 1.5-3.1 1.8-7.7 2.1-33.6.2-16.5.5-30 .6-30.2.2-.1 3.4 1.6 7.2 3.9 3.9 2.2 10.8 6.2 15.5 8.8 4.7 2.6 10.5 5.9 13 7.4 12.2 7.2 18 9.5 23.5 9.1 5.8-.4 4.6.2 36.7-18.1 11.1-6.3 20.5-11.4 20.9-11.4.5 0 .9-.5.9-1 0-.6.5-1 1-1 .6 0 6.5-3.2 13.1-7 6.6-3.9 12.2-7 12.4-7 .2 0 3.6-1.9 7.7-4.3 4-2.4 9.8-5.7 12.8-7.4 13.9-7.6 17.1-9.7 19.9-12.9 1.7-1.9 3.3-4.4 3.6-5.7.3-1.2.4-67.3.3-146.8l-.3-144.6-2.6-3.4c-2.4-3.1-18-12.4-69.9-41.7-1.9-1.1-7.8-4.4-13-7.4s-11.7-6.8-14.5-8.3c-2.7-1.6-9-5.1-14-7.9-8-4.5-9.7-5.1-15-5.1-4.2 0-7.2.6-10 2.1-5 2.6-16.5 9.1-18.5 10.4-1.3.9-19.2 11.3-27.7 16.1-2.2 1.2-3.2 1.4-3.5.6-.2-.7-.3-14.3-.2-30.3.2-31.6-.2-34.2-5.3-39.6-2.4-2.5-13.6-9.2-38.3-23.1-2.5-1.4-10.1-5.7-16.8-9.6-6.8-3.9-12.6-7.1-12.8-7.1-.2 0-2.1-1-4.2-2.3-2-1.3-6.2-3.7-9.2-5.4-3-1.7-8.7-4.9-12.7-7.2-3.9-2.2-8.7-4.9-10.5-5.9-1.8-1.1-5.9-3.4-9-5.1-8-4.5-15.4-5.1-22.3-1.8zm31.3 269.2c6.7 16 16.9 24.8 32.2 28 7 1.5 13.7 1.1 20.4-1.1 2.7-.9 14.9-7.3 27-14.2 27-15.3 27-15.3 32.6-18.4 2.5-1.4 9.2-5.2 15-8.5 32.2-18.5 62.2-35.3 63.1-35.6.8-.1 1.1 30.7 1.3 109.5 0 60.4-.1 109.8-.4 109.8-.5 0-19.9-11.2-69.5-40-1.6-.9-12.2-7.1-23.5-13.7s-23.4-13.5-27-15.5c-3.6-2-8.5-4.7-11-6-6.2-3.5-10.5-4.7-17.5-5.1-7.6-.4-13.4.8-21.1 4.4-6.6 3.1-15.6 11.3-18.4 16.9-5.1 9.9-5 8.9-5 91.2 0 42.2-.4 76.8-.8 76.8s-1.2-.4-1.8-.9c-.5-.5-6.7-4.2-13.9-8.3-14.3-8.3-52.2-30.2-65.5-38-4.7-2.8-12.3-7.2-17-10-4.7-2.7-9.2-5.3-10-5.8-1.5-1-9.8-5.7-16-9.3-1.9-1.1-11.4-6.6-21-12.2s-19.1-11.2-21-12.2c-1.9-1.1-8.1-4.8-13.8-8.1l-10.3-6 25.8-14.7c14.2-8.1 28.2-16.1 31.1-17.6 2.8-1.6 7-4 9.2-5.4 2.2-1.4 4.2-2.5 4.4-2.5.3 0 2.7-1.3 5.4-2.9 2.6-1.5 6.8-4 9.3-5.3 2.4-1.4 8.9-5.1 14.4-8.3 5.5-3.1 12-6.8 14.5-8.2 21.3-11.8 26.3-16.1 31.6-26.8 2.8-5.7 3.6-8.7 4-14.6.8-13.2-2.7-22.8-11.5-32-5.2-5.3-22.2-16-52.1-32.7-2.5-1.4-6.2-3.6-8.2-4.9-2.1-1.2-4-2.3-4.4-2.3-.3 0-2.6-1.4-5.1-3-2.4-1.7-4.6-3-4.8-3-.4 0-31.4-18-51.2-29.6-5.1-3-9.3-5.7-9.3-5.9 0-.2 2.1-1.6 4.8-3.1 2.6-1.5 9.4-5.5 15.2-8.9 5.8-3.4 11.2-6.5 12-6.9.8-.4 2.4-1.2 3.5-1.9 2.6-1.5 23.7-13.8 29.1-16.9 7.7-4.4 32.9-18.9 34.4-19.8.8-.5 15-8.7 31.5-18.2 16.5-9.4 36.1-20.7 43.5-25l13.5-7.7.5 78.7c.4 60.6.8 79.4 1.8 81.7z"/></svg>