<?xml version="1.0" encoding="UTF-8" standalone="no"?>
<!-- Created with Inkscape (http://www.inkscape.org/) -->

<svg
   xmlns:dc="http://purl.org/dc/elements/1.1/"
   xmlns:cc="http://creativecommons.org/ns#"
   xmlns:rdf="http://www.w3.org/1999/02/22-rdf-syntax-ns#"
   xmlns:svg="http://www.w3.org/2000/svg"
   xmlns="http://www.w3.org/2000/svg"
   xmlns:sodipodi="http://sodipodi.sourceforge.net/DTD/sodipodi-0.dtd"
   xmlns:inkscape="http://www.inkscape.org/namespaces/inkscape"
   width="22.277523mm"
   height="22.277523mm"
   viewBox="0 0 22.277523 22.277523"
   version="1.1"
   id="svg8"
   inkscape:version="0.92.4 (5da689c313, 2019-01-14)"
   sodipodi:docname="drawing.svg">
  <defs
     id="defs2" />
  <sodipodi:namedview
     id="base"
     pagecolor="#ffffff"
     bordercolor="#666666"
     borderopacity="1.0"
     inkscape:pageopacity="0.0"
     inkscape:pageshadow="2"
     inkscape:zoom="3.959798"
     inkscape:cx="7.1101771"
     inkscape:cy="40.66246"
     inkscape:document-units="mm"
     inkscape:current-layer="layer1"
     showgrid="false"
     fit-margin-top="0"
     fit-margin-left="0"
     fit-margin-right="0"
     fit-margin-bottom="0"
     inkscape:window-width="1618"
     inkscape:window-height="1028"
     inkscape:window-x="1392"
     inkscape:window-y="-8"
     inkscape:window-maximized="1" />
  <metadata
     id="metadata5">
    <rdf:RDF>
      <cc:Work
         rdf:about="">
        <dc:format>image/svg+xml</dc:format>
        <dc:type
           rdf:resource="http://purl.org/dc/dcmitype/StillImage" />
        <dc:title />
      </cc:Work>
    </rdf:RDF>
  </metadata>
  <g
     inkscape:label="Layer 1"
     inkscape:groupmode="layer"
     id="layer1"
     transform="translate(-171.27474,-54.103979)">
    <path
       style="fill:#000000;fill-opacity:1;stroke-width:0.17857143"
       d="m 664.09924,256.45828 c -1.84405,0.28627 -3.79214,0.81917 -5.26158,2.01311 -1.40074,1.42256 -0.37252,3.51948 0.39027,4.99268 2.18997,4.20589 5.12602,7.97498 8.53446,11.26185 1.75119,1.56089 3.26638,3.69871 5.59989,4.39698 1.33519,-0.14275 1.89389,-1.67469 2.60289,-2.6301 0.75868,-1.43829 2.12792,-3.27223 1.00376,-4.88037 -1.8231,-2.33398 -4.30999,-4.07206 -6.0677,-6.47671 -1.95911,-2.27102 -3.0918,-5.07476 -4.69994,-7.5687 -0.4809,-0.67423 -1.24502,-1.18312 -2.10205,-1.10874 z"
       id="path75"
       inkscape:connector-curvature="0"
       transform="scale(0.26458333)" />
    <path
       style="fill:#000000;fill-opacity:1;stroke-width:0.17857143"
       d="m 710.15741,216.82763 c -4.29961,0.14164 -8.02521,2.75439 -11.22986,5.39857 -4.70402,4.02458 -8.59227,9.51264 -9.29155,15.79527 -0.3521,3.41145 1.73027,6.724 4.77085,8.1958 4.22002,2.25963 9.17111,2.32572 13.61468,3.92474 1.08243,0.64801 0.0618,2.02414 -0.53781,2.65451 -3.177,3.19105 -7.49936,4.99267 -11.78995,6.13643 -3.45289,0.79068 -7.19359,0.95149 -10.73202,0.34131 -3.8039,-0.58508 -7.2018,-3.23981 -8.7786,-6.7327 -1.93183,-5.04278 -0.4738,-10.48277 -0.92181,-15.73033 0.034,-1.14527 -1.02522,-2.5246 -2.24923,-1.87151 -1.70838,1.18651 -2.08041,3.47302 -2.65102,5.34005 -1.00394,4.24241 -1.28056,8.70116 -0.62709,13.01688 0.99575,5.95782 4.69567,11.6066 10.2994,14.12935 5.29779,2.52552 11.53945,2.1908 17.00609,0.39801 5.80182,-2.04003 11.42882,-5.24638 15.10298,-10.30662 1.61946,-2.33334 3.01681,-5.00132 3.28419,-7.86785 0.0129,-2.47177 -1.13723,-4.87664 -2.69601,-6.74177 -2.0664,-1.972 -5.08512,-2.31464 -7.74344,-2.9677 -2.97645,-0.563 -6.15299,-0.91115 -8.72803,-2.68171 -1.58851,-1.27988 -0.55711,-3.56111 0.71045,-4.66378 2.70112,-2.63397 5.92757,-4.8185 9.46533,-6.14537 0.97449,-0.24711 2.10201,-0.0886 2.64823,0.84054 1.29027,1.72906 1.65995,3.97637 2.93946,5.69406 1.10257,0.71139 1.71395,-0.84297 2.10352,-1.60447 1.44129,-2.56623 2.07568,-5.58899 1.50034,-8.49703 -0.47864,-2.71736 -2.26542,-6.18768 -5.4691,-6.05468 z"
       id="path77"
       inkscape:connector-curvature="0"
       transform="scale(0.26458333)" />
    <path
       style="fill:#000000;fill-opacity:1;stroke-width:0.17857143"
       d="m 702.80634,231.16461 c -1.31092,0.0762 -0.93406,1.65177 -0.67418,2.47803 0.35256,1.14919 0.51658,2.83635 1.99812,3.04373 1.1583,0.20387 2.71068,0.48559 3.63141,-0.4248 0.6724,-1.41737 -0.69171,-2.81667 -1.66294,-3.71408 -0.9376,-0.71484 -2.10198,-1.30455 -3.29241,-1.38288 z"
       id="path79"
       inkscape:connector-curvature="0"
       transform="scale(0.26458333)" />
    <rect
       id="rect81"
       width="21"
       height="21"
       x="171.9135"
       y="54.742741"
       style="fill:none;stroke:#000000;stroke-width:1.2775228;stroke-linejoin:miter;stroke-miterlimit:4;stroke-dasharray:none;stroke-opacity:1;paint-order:normal"
       ry="0" />
  </g>
</svg>
